<svg width="17" height="17" viewBox="0 0 17 17" fill="none" xmlns="http://www.w3.org/2000/svg">
<path d="M5.66654 1.1333H4.5332V4.5333H5.66654V1.1333Z" fill="inherit"/>
<path d="M12.4663 1.1333H11.333V4.5333H12.4663V1.1333Z" fill="inherit"/>
<path d="M15.8671 15.8666H1.13379V2.2666H15.8671V15.8666ZM2.26712 14.7333H14.7338V3.39993H2.26712V14.7333Z" fill="inherit"/>
<path d="M15.8671 5.6665H1.13379V6.79984H15.8671V5.6665Z" fill="inherit"/>
<path d="M6.80033 7.93311H5.66699V9.06644H6.80033V7.93311Z" fill="inherit"/>
<path d="M9.06693 7.93311H7.93359V9.06644H9.06693V7.93311Z" fill="inherit"/>
<path d="M11.3335 7.93311H10.2002V9.06644H11.3335V7.93311Z" fill="inherit"/>
<path d="M13.6001 7.93311H12.4668V9.06644H13.6001V7.93311Z" fill="inherit"/>
<path d="M4.53372 10.2002H3.40039V11.3335H4.53372V10.2002Z" fill="inherit"/>
<path d="M6.80033 10.2002H5.66699V11.3335H6.80033V10.2002Z" fill="inherit"/>
<path d="M9.06693 10.2002H7.93359V11.3335H9.06693V10.2002Z" fill="inherit"/>
<path d="M11.3335 10.2002H10.2002V11.3335H11.3335V10.2002Z" fill="inherit"/>
<path d="M13.6001 10.2002H12.4668V11.3335H13.6001V10.2002Z" fill="inherit"/>
<path d="M4.53372 12.4668H3.40039V13.6001H4.53372V12.4668Z" fill="inherit"/>
<path d="M6.80033 12.4668H5.66699V13.6001H6.80033V12.4668Z" fill="inherit"/>
<path d="M9.06693 12.4668H7.93359V13.6001H9.06693V12.4668Z" fill="inherit"/>
</svg>
