<svg width="25" height="25" viewBox="0 0 25 25" fill="none" xmlns="http://www.w3.org/2000/svg">
<g opacity="0.15">
<rect width="25" height="25" rx="5.75944" fill="white"/>
<path d="M19.2426 6.28174C19.6993 6.28174 20.0439 6.68238 19.8596 7.42757L17.624 17.9644C17.4677 18.7136 17.015 18.8939 16.39 18.5454L11.0575 14.6071C11.0368 14.5922 11.0199 14.5727 11.0083 14.55C10.9967 14.5274 10.9906 14.5023 10.9906 14.4769C10.9906 14.4514 10.9967 14.4263 11.0083 14.4037C11.0199 14.381 11.0368 14.3615 11.0575 14.3466L17.2153 8.78575C17.4958 8.53735 17.1552 8.41716 16.7866 8.64151L9.05828 13.5173C9.03484 13.5326 9.00823 13.5424 8.98046 13.5458C8.95269 13.5493 8.9245 13.5464 8.89802 13.5373L5.61677 12.4997C4.8876 12.2873 4.8876 11.7865 5.78103 11.43L18.91 6.36587C19.0142 6.31592 19.1272 6.28731 19.2426 6.28174Z" fill="#313030"/>
</g>
</svg>
