<svg width="25" height="25" viewBox="0 0 25 25" fill="none" xmlns="http://www.w3.org/2000/svg">
<g opacity="0.15">
<rect width="25" height="25" rx="5.75944" fill="white"/>
<path d="M20.7909 8.53908C20.693 8.18957 20.5021 7.87315 20.2387 7.62344C19.9678 7.36606 19.6358 7.18195 19.274 7.08848C17.92 6.7316 12.4954 6.7316 12.4954 6.7316C10.234 6.70587 7.97309 6.81904 5.72551 7.07046C5.36372 7.17083 5.03234 7.35905 4.76085 7.6184C4.49409 7.87506 4.30087 8.19157 4.19994 8.53836C3.95747 9.84457 3.83966 11.1709 3.8481 12.4994C3.83945 13.8267 3.95697 15.1526 4.19994 16.4604C4.29871 16.8057 4.49121 17.1208 4.75869 17.3753C5.02617 17.6298 5.35926 17.8137 5.72551 17.911C7.09752 18.2672 12.4954 18.2672 12.4954 18.2672C14.7598 18.2929 17.0235 18.1798 19.274 17.9283C19.6358 17.8348 19.9678 17.6507 20.2387 17.3933C20.502 17.1437 20.6927 16.8272 20.7902 16.4777C21.039 15.172 21.16 13.8451 21.1514 12.516C21.1701 11.1812 21.0493 9.84805 20.7909 8.53836V8.53908ZM10.7709 14.968V10.0315L15.2842 12.5001L10.7709 14.968Z" fill="#313030"/>
</g>
</svg>
